<?xml version="1.0" encoding="UTF-8"?>
<!DOCTYPE svg PUBLIC "-//W3C//DTD SVG 1.1//EN" "http://www.w3.org/Graphics/SVG/1.1/DTD/svg11.dtd">
<svg xmlns="http://www.w3.org/2000/svg" version="1.1" width="35.3px" height="41.7px" viewBox="0 0 353 417" style="shape-rendering:geometricPrecision; text-rendering:geometricPrecision; image-rendering:optimizeQuality; fill-rule:evenodd; clip-rule:evenodd" xmlns:xlink="http://www.w3.org/1999/xlink">
<g><path style="opacity:1" fill="#060505" d="M 204.5,3.5 C 209.88,22.3085 215.88,40.9752 222.5,59.5C 222.974,64.4168 224.641,69.2501 227.5,74C 239.278,77.2827 250.611,81.7827 261.5,87.5C 262.609,87.5569 263.609,87.8902 264.5,88.5C 278.593,97.7329 291.76,108.4 304,120.5C 305.246,124.082 307.58,126.749 311,128.5C 317.482,136.156 322.982,144.489 327.5,153.5C 327.957,154.298 328.624,154.631 329.5,154.5C 330.127,158.42 331.793,161.753 334.5,164.5C 336.065,166.509 337.065,168.843 337.5,171.5C 338.726,177.515 340.726,183.182 343.5,188.5C 347.973,201.334 350.307,214.667 350.5,228.5C 350.472,240.844 350.138,253.177 349.5,265.5C 348.065,278.573 345.065,291.24 340.5,303.5C 339.25,303.577 338.417,304.244 338,305.5C 337.506,307.134 337.34,308.801 337.5,310.5C 336.624,310.369 335.957,310.702 335.5,311.5C 328.61,326.955 319.943,341.288 309.5,354.5C 307.086,355.911 305.419,357.911 304.5,360.5C 301.5,364.167 298.167,367.5 294.5,370.5C 292.596,370.738 291.262,371.738 290.5,373.5C 290.167,374.5 289.5,375.167 288.5,375.5C 282.067,379.418 275.733,383.585 269.5,388C 267.937,388.759 266.937,389.926 266.5,391.5C 266.167,391.5 265.833,391.5 265.5,391.5C 259.014,393.24 253.347,396.24 248.5,400.5C 243.618,403.464 238.285,405.464 232.5,406.5C 224.422,407.754 216.755,409.754 209.5,412.5C 204.988,413.981 200.322,414.648 195.5,414.5C 178.121,414.812 160.788,414.146 143.5,412.5C 134.824,411.766 126.491,409.766 118.5,406.5C 111.623,403.061 104.623,399.561 97.5,396C 96.2068,395.51 94.8734,395.343 93.5,395.5C 87.011,390.418 80.011,386.085 72.5,382.5C 71.4154,380.413 69.7488,379.08 67.5,378.5C 65.7607,375.757 63.4274,373.757 60.5,372.5C 57.7689,368.766 54.4356,365.766 50.5,363.5C 49.2427,360.573 47.2427,358.239 44.5,356.5C 43.5,356.167 42.8333,355.5 42.5,354.5C 30.9904,339.501 21.4904,323.168 14,305.5C 11.4282,297.277 8.59487,289.277 5.5,281.5C -1.72246,251.223 -1.05579,221.223 7.5,191.5C 10.8796,183.701 13.8796,175.701 16.5,167.5C 21.2399,159.692 25.7399,151.692 30,143.5C 40.6531,127.735 53.4864,113.902 68.5,102C 75.6168,97.9412 82.2835,93.4412 88.5,88.5C 92.1822,85.9922 96.1822,83.9922 100.5,82.5C 107.878,79.0405 115.545,76.3738 123.5,74.5C 123.737,73.209 123.404,72.209 122.5,71.5C 122.5,68.1667 122.5,64.8333 122.5,61.5C 123.641,58.3601 123.808,55.0267 123,51.5C 122.617,50.944 122.117,50.6107 121.5,50.5C 121.5,46.5 121.5,42.5 121.5,38.5C 122.5,28.9965 122.5,19.3298 121.5,9.5C 124.833,9.5 128.167,9.5 131.5,9.5C 132.167,9.83333 132.833,10.1667 133.5,10.5C 133.937,12.0744 134.937,13.2411 136.5,14C 142.004,17.3555 147.337,20.8555 152.5,24.5C 152.611,25.1174 152.944,25.6174 153.5,26C 162.5,26.6667 171.5,26.6667 180.5,26C 181.252,25.3292 181.586,24.4959 181.5,23.5C 183.749,17.9946 186.749,12.9946 190.5,8.5C 193.04,7.11267 194.707,4.946 195.5,2C 198.744,1.28833 201.744,1.78833 204.5,3.5 Z"/></g>
<g><path style="opacity:0.839" fill="#322b22" d="M 204.5,3.5 C 201.744,1.78833 198.744,1.28833 195.5,2C 194.707,4.946 193.04,7.11267 190.5,8.5C 191.785,0.941353 196.118,-1.55865 203.5,1C 204.252,1.67076 204.586,2.5041 204.5,3.5 Z"/></g>
<g><path style="opacity:0.216" fill="#655543" d="M 133.5,10.5 C 141.024,14.4254 148.024,19.0921 154.5,24.5C 153.833,24.5 153.167,24.5 152.5,24.5C 147.337,20.8555 142.004,17.3555 136.5,14C 134.937,13.2411 133.937,12.0744 133.5,10.5 Z"/></g>
<g><path style="opacity:0.804" fill="#242019" d="M 131.5,9.5 C 128.167,9.5 124.833,9.5 121.5,9.5C 122.5,19.3298 122.5,28.9965 121.5,38.5C 120.208,29.0137 119.708,19.347 120,9.5C 123.183,7.47659 126.683,6.97659 130.5,8C 131.056,8.38258 131.389,8.88258 131.5,9.5 Z"/></g>
<g><path style="opacity:0.278" fill="#372f24" d="M 181.5,23.5 C 181.586,24.4959 181.252,25.3292 180.5,26C 171.5,26.6667 162.5,26.6667 153.5,26C 152.944,25.6174 152.611,25.1174 152.5,24.5C 153.167,24.5 153.833,24.5 154.5,24.5C 163.584,24.8044 172.584,24.4711 181.5,23.5 Z"/></g>
<g><path style="opacity:1" fill="#707070" d="M 225.5,97.5 C 211.028,99.1612 196.362,100.161 181.5,100.5C 180.305,100.866 179.639,101.699 179.5,103C 183.358,113.203 190.524,119.369 201,121.5C 201.818,124.227 201.652,126.894 200.5,129.5C 198.779,134.057 195.779,137.557 191.5,140C 185.141,140.831 178.807,140.664 172.5,139.5C 171.86,130.861 171.193,122.195 170.5,113.5C 167.736,111.392 164.736,111.059 161.5,112.5C 160.359,122.453 160.192,132.453 161,142.5C 163.52,146.016 166.353,149.183 169.5,152C 177.5,152.667 185.5,152.667 193.5,152C 197.611,150.778 200.944,148.444 203.5,145C 205.367,144.289 206.867,144.789 208,146.5C 208.253,156.856 207.753,167.19 206.5,177.5C 196.701,184.534 185.701,187.367 173.5,186C 159.555,179.942 146.388,172.442 134,163.5C 136.413,118.813 135.913,74.1465 132.5,29.5C 132.833,27.8333 133.167,26.1667 133.5,24.5C 137.835,28.3309 142.502,31.6643 147.5,34.5C 147.953,35.4584 148.619,36.2917 149.5,37C 161.674,37.8263 173.674,37.6597 185.5,36.5C 189.204,32.7937 192.204,28.4604 194.5,23.5C 195.908,21.5643 197.241,21.3977 198.5,23C 205.433,48.6372 214.433,73.4705 225.5,97.5 Z"/></g>
<g><path style="opacity:1" fill="#474747" d="M 147.5,34.5 C 148.756,34.4614 149.756,34.9614 150.5,36C 162.162,36.4999 173.829,36.6665 185.5,36.5C 173.674,37.6597 161.674,37.8263 149.5,37C 148.619,36.2917 147.953,35.4584 147.5,34.5 Z"/></g>
<g><path style="opacity:0.651" fill="#41372b" d="M 121.5,50.5 C 122.117,50.6107 122.617,50.944 123,51.5C 123.808,55.0267 123.641,58.3601 122.5,61.5C 121.518,58.0381 121.185,54.3714 121.5,50.5 Z"/></g>
<g><path style="opacity:1" fill="#0d0d0d" d="M 162.5,60.5 C 168.098,61.4903 169.932,64.8236 168,70.5C 165.667,73.1667 163.333,73.1667 161,70.5C 160.037,66.8513 160.537,63.518 162.5,60.5 Z"/></g>
<g><path style="opacity:1" fill="#111111" d="M 197.5,60.5 C 202.763,61.2254 204.93,64.2254 204,69.5C 201.215,73.4654 198.548,73.4654 196,69.5C 195.068,66.1769 195.568,63.1769 197.5,60.5 Z"/></g>
<g><path style="opacity:0.722" fill="#4f4234" d="M 122.5,71.5 C 123.404,72.209 123.737,73.209 123.5,74.5C 115.545,76.3738 107.878,79.0405 100.5,82.5C 100.369,81.6236 100.702,80.9569 101.5,80.5C 108.481,77.2898 115.481,74.2898 122.5,71.5 Z"/></g>
<g><path style="opacity:0.525" fill="#564a39" d="M 222.5,59.5 C 224.049,62.4622 225.382,65.6289 226.5,69C 227.272,70.221 228.272,71.221 229.5,72C 240.988,75.6999 251.654,80.8666 261.5,87.5C 250.611,81.7827 239.278,77.2827 227.5,74C 224.641,69.2501 222.974,64.4168 222.5,59.5 Z"/></g>
<g><path style="opacity:1" fill="#916e53" d="M 123.5,128.5 C 123.758,154.705 121.591,180.705 117,206.5C 115.074,214.944 112.741,223.278 110,231.5C 103.857,243.24 98.8566,255.573 95,268.5C 89.8992,284.57 85.8992,300.903 83,317.5C 80.4347,336.678 81.268,355.678 85.5,374.5C 85.1667,375.167 84.8333,375.833 84.5,376.5C 47.046,350.687 24.046,315.354 15.5,270.5C 14.9784,259.51 14.6451,248.51 14.5,237.5C 14.6336,224.41 15.6336,211.41 17.5,198.5C 19.6098,194.498 20.9431,190.165 21.5,185.5C 26.5759,170.01 34.2425,156.01 44.5,143.5C 53.8004,132.532 63.8004,122.199 74.5,112.5C 84.6744,102.906 96.3411,95.573 109.5,90.5C 114.151,89.1779 118.818,87.8446 123.5,86.5C 123.5,100.5 123.5,114.5 123.5,128.5 Z"/></g>
<g><path style="opacity:1" fill="#916e53" d="M 335.5,202.5 C 337.57,215.571 338.903,228.738 339.5,242C 338.923,250.181 338.256,258.347 337.5,266.5C 329.946,310.408 308.28,345.741 272.5,372.5C 276.578,314.293 262.412,261.293 230,213.5C 218.481,194.352 215.314,174.018 220.5,152.5C 224.667,153.405 228.667,153.405 232.5,152.5C 234.695,149.586 236.029,146.252 236.5,142.5C 237.222,142.082 237.722,141.416 238,140.5C 239.41,131.45 241.077,122.45 243,113.5C 243.81,109.642 243.643,105.976 242.5,102.5C 239.123,98.1136 236.123,93.447 233.5,88.5C 235.466,87.628 237.466,87.7947 239.5,89C 289.414,111.742 321.414,149.576 335.5,202.5 Z"/></g>
<g><path style="opacity:1" fill="#33261d" d="M 123.5,128.5 C 123.5,114.5 123.5,100.5 123.5,86.5C 118.818,87.8446 114.151,89.1779 109.5,90.5C 113.956,87.4589 118.956,85.7923 124.5,85.5C 124.829,100.01 124.496,114.343 123.5,128.5 Z"/></g>
<g><path style="opacity:1" fill="#3f3f3f" d="M 225.5,97.5 C 226.404,98.209 226.737,99.209 226.5,100.5C 211.5,100.5 196.5,100.5 181.5,100.5C 196.362,100.161 211.028,99.1612 225.5,97.5 Z"/></g>
<g><path style="opacity:1" fill="#584232" d="M 242.5,102.5 C 243.643,105.976 243.81,109.642 243,113.5C 241.077,122.45 239.41,131.45 238,140.5C 237.722,141.416 237.222,142.082 236.5,142.5C 238.718,129.195 240.718,115.862 242.5,102.5 Z"/></g>
<g><path style="opacity:1" fill="#6a6a6a" d="M 226.5,114.5 C 227.5,114.5 228.5,114.5 229.5,114.5C 228.383,123.2 227.05,131.867 225.5,140.5C 222.187,139.955 218.854,139.455 215.5,139C 215,138.5 214.5,138 214,137.5C 212.59,131.621 212.09,125.621 212.5,119.5C 217.703,118.991 222.37,117.324 226.5,114.5 Z"/></g>
<g><path style="opacity:1" fill="#614937" d="M 74.5,112.5 C 63.8004,122.199 53.8004,132.532 44.5,143.5C 52.4563,131.21 62.4563,120.877 74.5,112.5 Z"/></g>
<g><path style="opacity:0.059" fill="#72614b" d="M 264.5,88.5 C 292.963,103.962 314.63,125.962 329.5,154.5C 328.624,154.631 327.957,154.298 327.5,153.5C 322.982,144.489 317.482,136.156 311,128.5C 307.58,126.749 305.246,124.082 304,120.5C 291.76,108.4 278.593,97.7329 264.5,88.5 Z"/></g>
<g><path style="opacity:0.604" fill="#695a45" d="M 88.5,88.5 C 82.2835,93.4412 75.6168,97.9412 68.5,102C 53.4864,113.902 40.6531,127.735 30,143.5C 25.7399,151.692 21.2399,159.692 16.5,167.5C 16.3433,166.127 16.51,164.793 17,163.5C 29.7527,137.088 47.9193,115.254 71.5,98C 76.8379,94.1431 82.5045,90.9764 88.5,88.5 Z"/></g>
<g><path style="opacity:1" fill="#463528" d="M 220.5,152.5 C 224.342,151.461 228.342,151.461 232.5,152.5C 228.667,153.405 224.667,153.405 220.5,152.5 Z"/></g>
<g><path style="opacity:0.176" fill="#736149" d="M 329.5,154.5 C 332.201,157.235 333.868,160.569 334.5,164.5C 331.793,161.753 330.127,158.42 329.5,154.5 Z"/></g>
<g><path style="opacity:0.859" fill="#514535" d="M 337.5,171.5 C 340.668,176.667 342.668,182.334 343.5,188.5C 340.726,183.182 338.726,177.515 337.5,171.5 Z"/></g>
<g><path style="opacity:1" fill="#6039b2" d="M 136.5,179.5 C 135.153,178.829 133.986,178.829 133,179.5C 132.814,182.036 132.314,184.369 131.5,186.5C 131.26,183.421 131.593,180.421 132.5,177.5C 134.345,176.605 135.678,177.272 136.5,179.5 Z"/></g>
<g><path style="opacity:1" fill="#8a52fd" d="M 136.5,179.5 C 139.339,181.42 142.339,183.087 145.5,184.5C 145.5,185.5 145.5,186.5 145.5,187.5C 148.817,188.488 152.151,189.488 155.5,190.5C 157.284,190.893 158.95,191.559 160.5,192.5C 169.166,198.206 178.5,199.872 188.5,197.5C 189.833,197.5 191.167,197.5 192.5,197.5C 195.811,197.693 198.478,196.693 200.5,194.5C 202.698,194.88 204.365,194.213 205.5,192.5C 206.5,192.5 207.5,192.5 208.5,192.5C 208.263,193.791 208.596,194.791 209.5,195.5C 215.088,209.342 221.754,222.675 229.5,235.5C 229.427,237.027 230.094,238.027 231.5,238.5C 233.341,240.849 234.674,243.515 235.5,246.5C 235.427,248.027 236.094,249.027 237.5,249.5C 239.341,251.849 240.674,254.515 241.5,257.5C 241.166,260.491 242.166,262.824 244.5,264.5C 245.105,269.032 246.772,273.032 249.5,276.5C 249.5,276.833 249.5,277.167 249.5,277.5C 249.259,279.898 249.926,281.898 251.5,283.5C 253.065,289.378 253.732,295.378 253.5,301.5C 252.404,306.132 250.737,310.466 248.5,314.5C 246.408,317.088 245.075,320.088 244.5,323.5C 242.634,326.573 241.301,329.906 240.5,333.5C 237.742,336.678 235.742,340.345 234.5,344.5C 233.723,360.676 233.057,377.009 232.5,393.5C 232.5,394.167 232.167,394.5 231.5,394.5C 227.605,395.462 223.939,396.796 220.5,398.5C 214.854,399.608 209.188,400.608 203.5,401.5C 187.507,402.1 171.507,402.433 155.5,402.5C 151.19,401.92 146.857,401.586 142.5,401.5C 142.167,401.5 141.833,401.5 141.5,401.5C 139.485,400.076 137.152,399.41 134.5,399.5C 132.868,396.442 131.701,393.109 131,389.5C 126.746,366.703 124.412,343.703 124,320.5C 123.292,319.619 122.458,318.953 121.5,318.5C 120.551,317.848 119.385,317.514 118,317.5C 116.319,317.608 115.152,318.275 114.5,319.5C 112.94,321.156 111.94,323.156 111.5,325.5C 106.729,318.961 102.729,311.961 99.5,304.5C 100.167,299.167 100.833,293.833 101.5,288.5C 102.924,286.485 103.59,284.152 103.5,281.5C 106.943,273.502 109.609,265.169 111.5,256.5C 112.594,253.318 113.928,250.318 115.5,247.5C 117.074,245.898 117.741,243.898 117.5,241.5C 123.82,227.894 127.82,213.56 129.5,198.5C 131.217,195.155 131.884,191.489 131.5,187.5C 131.5,187.167 131.5,186.833 131.5,186.5C 132.314,184.369 132.814,182.036 133,179.5C 133.986,178.829 135.153,178.829 136.5,179.5 Z"/></g>
<g><path style="opacity:0.667" fill="#544737" d="M 16.5,167.5 C 13.8796,175.701 10.8796,183.701 7.5,191.5C 8.94151,182.833 11.9415,174.833 16.5,167.5 Z"/></g>
<g><path style="opacity:1" fill="#453427" d="M 21.5,185.5 C 20.9431,190.165 19.6098,194.498 17.5,198.5C 18.0569,193.835 19.3902,189.502 21.5,185.5 Z"/></g>
<g><path style="opacity:1" fill="#5f39b0" d="M 145.5,184.5 C 149.173,186 152.506,188 155.5,190.5C 152.151,189.488 148.817,188.488 145.5,187.5C 145.5,186.5 145.5,185.5 145.5,184.5 Z"/></g>
<g><path style="opacity:1" fill="#4b2d8a" d="M 209.5,195.5 C 208.596,194.791 208.263,193.791 208.5,192.5C 207.5,192.5 206.5,192.5 205.5,192.5C 206.002,190.915 207.002,190.415 208.5,191C 209.38,192.356 209.714,193.856 209.5,195.5 Z"/></g>
<g><path style="opacity:1" fill="#57339f" d="M 205.5,192.5 C 204.365,194.213 202.698,194.88 200.5,194.5C 201.635,192.787 203.302,192.12 205.5,192.5 Z"/></g>
<g><path style="opacity:1" fill="#5a36a6" d="M 131.5,187.5 C 131.884,191.489 131.217,195.155 129.5,198.5C 129.808,194.64 130.475,190.974 131.5,187.5 Z"/></g>
<g><path style="opacity:1" fill="#5a36a6" d="M 200.5,194.5 C 198.478,196.693 195.811,197.693 192.5,197.5C 194.522,195.307 197.189,194.307 200.5,194.5 Z"/></g>
<g><path style="opacity:1" fill="#3a226a" d="M 160.5,192.5 C 165.296,193.487 169.963,194.987 174.5,197C 179.155,197.499 183.821,197.666 188.5,197.5C 178.5,199.872 169.166,198.206 160.5,192.5 Z"/></g>
<g><path style="opacity:1" fill="#533e2f" d="M 335.5,202.5 C 338.896,215.133 340.563,228.133 340.5,241.5C 340.713,250.121 339.713,258.454 337.5,266.5C 338.256,258.347 338.923,250.181 339.5,242C 338.903,228.738 337.57,215.571 335.5,202.5 Z"/></g>
<g><path style="opacity:1" fill="#745842" d="M 17.5,198.5 C 15.6336,211.41 14.6336,224.41 14.5,237.5C 14.6451,248.51 14.9784,259.51 15.5,270.5C 14.0554,266.079 13.222,261.412 13,256.5C 12.3333,244.167 12.3333,231.833 13,219.5C 13.5637,212.173 15.0637,205.173 17.5,198.5 Z"/></g>
<g><path style="opacity:1" fill="#3e2571" d="M 229.5,235.5 C 230.906,235.973 231.573,236.973 231.5,238.5C 230.094,238.027 229.427,237.027 229.5,235.5 Z"/></g>
<g><path style="opacity:1" fill="#533198" d="M 117.5,241.5 C 117.741,243.898 117.074,245.898 115.5,247.5C 115.259,245.102 115.926,243.102 117.5,241.5 Z"/></g>
<g><path style="opacity:1" fill="#d7d6d8" d="M 217.5,273.5 C 221.184,275.23 225.184,276.23 229.5,276.5C 229.5,277.833 229.5,279.167 229.5,280.5C 223.564,286.938 217.397,293.271 211,299.5C 212.595,310.415 213.761,321.415 214.5,332.5C 212.473,332.662 210.473,332.495 208.5,332C 200.733,327.198 192.566,323.365 184,320.5C 177.828,323.004 171.994,326.17 166.5,330C 163.031,331.732 159.364,332.898 155.5,333.5C 155.916,328.507 156.249,323.507 156.5,318.5C 156.5,317.833 156.5,317.167 156.5,316.5C 158.341,311.424 158.841,306.091 158,300.5C 157.617,299.944 157.117,299.611 156.5,299.5C 150.194,293.86 144.194,287.86 138.5,281.5C 138.33,280.178 138.663,279.011 139.5,278C 147.333,276.29 155,274.457 162.5,272.5C 164.467,272.739 166.301,272.406 168,271.5C 172.437,261.614 177.604,252.28 183.5,243.5C 190.283,252.217 195.95,261.717 200.5,272C 206.135,272.904 211.802,273.404 217.5,273.5 Z"/></g>
<g><path style="opacity:0.761" fill="#3a3126" d="M 350.5,228.5 C 351.166,232.82 351.499,237.32 351.5,242C 351.586,250.047 350.919,257.88 349.5,265.5C 350.138,253.177 350.472,240.844 350.5,228.5 Z"/></g>
<g><path style="opacity:1" fill="#3d2470" d="M 235.5,246.5 C 236.906,246.973 237.573,247.973 237.5,249.5C 236.094,249.027 235.427,248.027 235.5,246.5 Z"/></g>
<g><path style="opacity:1" fill="#422779" d="M 111.5,256.5 C 109.609,265.169 106.943,273.502 103.5,281.5C 105.391,272.831 108.057,264.498 111.5,256.5 Z"/></g>
<g><path style="opacity:1" fill="#513095" d="M 241.5,257.5 C 243.065,259.509 244.065,261.843 244.5,264.5C 242.166,262.824 241.166,260.491 241.5,257.5 Z"/></g>
<g><path style="opacity:1" fill="#503094" d="M 244.5,264.5 C 246.928,268.099 248.594,272.099 249.5,276.5C 246.772,273.032 245.105,269.032 244.5,264.5 Z"/></g>
<g><path style="opacity:1" fill="#c2b0e3" d="M 217.5,273.5 C 221.49,273.999 225.49,274.499 229.5,275C 232.124,276.969 232.124,278.802 229.5,280.5C 229.5,279.167 229.5,277.833 229.5,276.5C 225.184,276.23 221.184,275.23 217.5,273.5 Z"/></g>
<g><path style="opacity:1" fill="#bea9e6" d="M 162.5,272.5 C 155,274.457 147.333,276.29 139.5,278C 138.663,279.011 138.33,280.178 138.5,281.5C 136.418,280.415 136.084,278.915 137.5,277C 145.707,274.804 154.04,273.304 162.5,272.5 Z"/></g>
<g><path style="opacity:1" fill="#513095" d="M 249.5,277.5 C 251.074,279.102 251.741,281.102 251.5,283.5C 249.926,281.898 249.259,279.898 249.5,277.5 Z"/></g>
<g><path style="opacity:1" fill="#4c2d8b" d="M 103.5,281.5 C 103.59,284.152 102.924,286.485 101.5,288.5C 101.41,285.848 102.076,283.515 103.5,281.5 Z"/></g>
<g><path style="opacity:1" fill="#6039b0" d="M 251.5,283.5 C 253.586,287.488 254.92,291.822 255.5,296.5C 255.564,298.557 254.898,300.223 253.5,301.5C 253.732,295.378 253.065,289.378 251.5,283.5 Z"/></g>
<g><path style="opacity:1" fill="#5f39af" d="M 101.5,288.5 C 100.833,293.833 100.167,299.167 99.5,304.5C 98.3509,304.209 97.6842,303.376 97.5,302C 98.3683,297.241 99.7016,292.741 101.5,288.5 Z"/></g>
<g><path style="opacity:0.757" fill="#5a4e3c" d="M 340.5,303.5 C 340.065,306.157 339.065,308.491 337.5,310.5C 337.34,308.801 337.506,307.134 338,305.5C 338.417,304.244 339.25,303.577 340.5,303.5 Z"/></g>
<g><path style="opacity:1" fill="#a279f3" d="M 156.5,299.5 C 157.117,299.611 157.617,299.944 158,300.5C 158.841,306.091 158.341,311.424 156.5,316.5C 157.427,310.793 157.427,305.126 156.5,299.5 Z"/></g>
<g><path style="opacity:1" fill="#311c59" d="M 121.5,318.5 C 119.05,318.298 116.717,318.631 114.5,319.5C 115.152,318.275 116.319,317.608 118,317.5C 119.385,317.514 120.551,317.848 121.5,318.5 Z"/></g>
<g><path style="opacity:1" fill="#523197" d="M 248.5,314.5 C 247.941,317.943 246.607,320.943 244.5,323.5C 245.075,320.088 246.408,317.088 248.5,314.5 Z"/></g>
<g><path style="opacity:1" fill="#43287c" d="M 114.5,319.5 C 113.942,321.823 113.275,324.157 112.5,326.5C 111.893,326.376 111.56,326.043 111.5,325.5C 111.94,323.156 112.94,321.156 114.5,319.5 Z"/></g>
<g><path style="opacity:1" fill="#6f6f6f" d="M 105.5,336.5 C 107.388,339.899 109.888,342.899 113,345.5C 113.956,356.172 114.956,366.838 116,377.5C 116.846,381.388 118.013,385.055 119.5,388.5C 120.15,390.435 120.483,392.435 120.5,394.5C 113.846,392.891 107.513,390.391 101.5,387C 99.5125,385.681 98.3459,383.848 98,381.5C 93.6819,361.686 92.5152,341.686 94.5,321.5C 98.4083,326.314 102.075,331.314 105.5,336.5 Z"/></g>
<g><path style="opacity:1" fill="#707070" d="M 257.5,382.5 C 254.412,384.571 251.079,386.238 247.5,387.5C 246.17,381.369 245.503,374.869 245.5,368C 245.535,360.787 245.868,353.621 246.5,346.5C 249.229,340.041 252.229,333.708 255.5,327.5C 256.15,327.196 256.817,326.863 257.5,326.5C 258.795,345.189 258.795,363.856 257.5,382.5 Z"/></g>
<g><path style="opacity:1" fill="#ac8aee" d="M 156.5,318.5 C 156.249,323.507 155.916,328.507 155.5,333.5C 154.284,328.434 154.617,323.434 156.5,318.5 Z"/></g>
<g><path style="opacity:0.463" fill="#635541" d="M 337.5,310.5 C 331.207,325.09 323.374,338.757 314,351.5C 312.385,352.386 310.885,353.386 309.5,354.5C 319.943,341.288 328.61,326.955 335.5,311.5C 335.957,310.702 336.624,310.369 337.5,310.5 Z"/></g>
<g><path style="opacity:0.141" fill="#5f513f" d="M 5.5,281.5 C 8.59487,289.277 11.4282,297.277 14,305.5C 21.4904,323.168 30.9904,339.501 42.5,354.5C 39.59,352.761 37.09,350.428 35,347.5C 25.2035,333.58 17.2035,318.58 11,302.5C 8.97481,295.537 7.14148,288.537 5.5,281.5 Z"/></g>
<g><path style="opacity:1" fill="#21153a" d="M 240.5,333.5 C 239.751,338.009 237.751,341.676 234.5,344.5C 235.742,340.345 237.742,336.678 240.5,333.5 Z"/></g>
<g><path style="opacity:1" fill="#5c5c5c" d="M 257.5,382.5 C 258.795,363.856 258.795,345.189 257.5,326.5C 256.817,326.863 256.15,327.196 255.5,327.5C 255.962,325.243 256.962,323.243 258.5,321.5C 260.881,341.125 261.048,360.792 259,380.5C 258.722,381.416 258.222,382.082 257.5,382.5 Z"/></g>
<g><path style="opacity:0.192" fill="#75634c" d="M 44.5,356.5 C 47.2427,358.239 49.2427,360.573 50.5,363.5C 47.7573,361.761 45.7573,359.427 44.5,356.5 Z"/></g>
<g><path style="opacity:0.173" fill="#79664f" d="M 309.5,354.5 C 308.581,357.089 306.914,359.089 304.5,360.5C 305.419,357.911 307.086,355.911 309.5,354.5 Z"/></g>
<g><path style="opacity:1" fill="#3e3e3e" d="M 246.5,346.5 C 245.868,353.621 245.535,360.787 245.5,368C 245.503,374.869 246.17,381.369 247.5,387.5C 246.791,388.404 245.791,388.737 244.5,388.5C 244.333,374.829 244.5,361.163 245,347.5C 245.383,346.944 245.883,346.611 246.5,346.5 Z"/></g>
<g><path style="opacity:0.533" fill="#665843" d="M 50.5,363.5 C 54.4356,365.766 57.7689,368.766 60.5,372.5C 56.5644,370.234 53.2311,367.234 50.5,363.5 Z"/></g>
<g><path style="opacity:1" fill="#1a102f" d="M 234.5,344.5 C 234.667,358.837 234.5,373.171 234,387.5C 233.809,389.708 233.309,391.708 232.5,393.5C 233.057,377.009 233.723,360.676 234.5,344.5 Z"/></g>
<g><path style="opacity:1" fill="#4f4f4f" d="M 105.5,336.5 C 108.464,338.962 111.297,341.629 114,344.5C 114.748,359.329 116.582,373.995 119.5,388.5C 118.013,385.055 116.846,381.388 116,377.5C 114.956,366.838 113.956,356.172 113,345.5C 109.888,342.899 107.388,339.899 105.5,336.5 Z"/></g>
<g><path style="opacity:0.192" fill="#7d6a53" d="M 294.5,370.5 C 293.738,372.262 292.404,373.262 290.5,373.5C 291.262,371.738 292.596,370.738 294.5,370.5 Z"/></g>
<g><path style="opacity:0.506" fill="#6a5c46" d="M 60.5,372.5 C 63.4274,373.757 65.7607,375.757 67.5,378.5C 64.5726,377.243 62.2393,375.243 60.5,372.5 Z"/></g>
<g><path style="opacity:0.471" fill="#705f4a" d="M 67.5,378.5 C 69.7488,379.08 71.4154,380.413 72.5,382.5C 70.2512,381.92 68.5846,380.587 67.5,378.5 Z"/></g>
<g><path style="opacity:0.161" fill="#665342" d="M 288.5,375.5 C 288.489,377.017 287.823,378.184 286.5,379C 280.237,383.957 273.57,388.123 266.5,391.5C 266.937,389.926 267.937,388.759 269.5,388C 275.733,383.585 282.067,379.418 288.5,375.5 Z"/></g>
<g><path style="opacity:0.149" fill="#574a3a" d="M 72.5,382.5 C 80.011,386.085 87.011,390.418 93.5,395.5C 85.3509,392.93 78.3509,388.597 72.5,382.5 Z"/></g>
<g><path style="opacity:0.541" fill="#3e3529" d="M 265.5,391.5 C 260.316,395.26 254.65,398.26 248.5,400.5C 253.347,396.24 259.014,393.24 265.5,391.5 Z"/></g>
<g><path style="opacity:0.78" fill="#3f3629" d="M 93.5,395.5 C 94.8734,395.343 96.2068,395.51 97.5,396C 104.623,399.561 111.623,403.061 118.5,406.5C 109.511,404.169 101.178,400.502 93.5,395.5 Z"/></g>
<g><path style="opacity:1" fill="#2b1950" d="M 231.5,394.5 C 228.374,396.99 224.708,398.323 220.5,398.5C 223.939,396.796 227.605,395.462 231.5,394.5 Z"/></g>
<g><path style="opacity:1" fill="#271849" d="M 134.5,399.5 C 137.152,399.41 139.485,400.076 141.5,401.5C 138.848,401.59 136.515,400.924 134.5,399.5 Z"/></g>
<g><path style="opacity:1" fill="#341f60" d="M 220.5,398.5 C 215.173,400.784 209.507,402.118 203.5,402.5C 203.5,402.167 203.5,401.833 203.5,401.5C 209.188,400.608 214.854,399.608 220.5,398.5 Z"/></g>
<g><path style="opacity:1" fill="#7747db" d="M 203.5,401.5 C 203.5,401.833 203.5,402.167 203.5,402.5C 197.855,403.134 192.189,403.468 186.5,403.5C 175.986,403.828 165.653,403.494 155.5,402.5C 171.507,402.433 187.507,402.1 203.5,401.5 Z"/></g>
<g><path style="opacity:1" fill="#482b85" d="M 142.5,401.5 C 146.857,401.586 151.19,401.92 155.5,402.5C 165.653,403.494 175.986,403.828 186.5,403.5C 186.5,403.833 186.5,404.167 186.5,404.5C 175.828,404.667 165.161,404.5 154.5,404C 150.264,403.665 146.264,402.832 142.5,401.5 Z"/></g>
<g><path style="opacity:1" fill="#20143a" d="M 203.5,402.5 C 202.391,403.29 201.058,403.79 199.5,404C 195.179,404.499 190.846,404.666 186.5,404.5C 186.5,404.167 186.5,403.833 186.5,403.5C 192.189,403.468 197.855,403.134 203.5,402.5 Z"/></g>
<g><path style="opacity:0.827" fill="#2e2820" d="M 232.5,406.5 C 225.283,409.75 217.616,411.75 209.5,412.5C 216.755,409.754 224.422,407.754 232.5,406.5 Z"/></g>
<g><path style="opacity:0.761" fill="#2a241c" d="M 143.5,412.5 C 160.788,414.146 178.121,414.812 195.5,414.5C 182.34,415.66 169.006,415.827 155.5,415C 151.301,414.472 147.301,413.639 143.5,412.5 Z"/></g>
</svg>
